<?xml version="1.0" standalone="no"?>
<!DOCTYPE svg PUBLIC "-//W3C//DTD SVG 20010904//EN"
 "http://www.w3.org/TR/2001/REC-SVG-20010904/DTD/svg10.dtd">
<svg version="1.0" xmlns="http://www.w3.org/2000/svg"
 width="512.000000pt" height="512.000000pt" viewBox="0 0 512.000000 512.000000"
 preserveAspectRatio="xMidYMid meet">
<metadata>
Created by potrace 1.11, written by Peter Selinger 2001-2013
</metadata>
<g transform="translate(0.000000,512.000000) scale(0.100000,-0.100000)"
fill="#000000" stroke="none">
<path d="M2489 4816 c-2 -2 -38 -7 -79 -10 -41 -4 -84 -9 -95 -11 -24 -6 -68
-14 -115 -22 -77 -13 -321 -87 -425 -130 -223 -91 -465 -233 -649 -380 -95
-76 -328 -310 -402 -403 -101 -128 -218 -311 -292 -458 -39 -78 -69 -142 -67
-142 2 0 -7 -25 -21 -55 -53 -120 -116 -340 -138 -480 -31 -197 -35 -257 -31
-440 2 -99 6 -192 9 -208 4 -15 8 -44 10 -65 21 -218 130 -525 269 -757 271
-452 720 -778 1242 -900 139 -32 163 -36 330 -51 497 -44 1053 107 1510 411
319 211 601 505 792 825 46 76 136 247 138 260 1 3 11 28 24 55 42 93 119 329
135 415 2 14 11 60 20 102 8 43 18 102 21 130 3 29 8 71 10 93 6 45 6 334 1
380 -2 17 -6 55 -10 85 -39 354 -193 726 -414 1005 -272 343 -642 581 -1071
690 -53 13 -109 26 -126 29 -16 2 -50 8 -75 11 -25 4 -54 9 -65 12 -25 6 -430
14 -436 9z"/>
</g>
</svg>
